<svg width="15" height="28" viewBox="0 0 15 8" fill="none" xmlns="http://www.w3.org/2000/svg">
<path class="scout--binoculars" d="M13.1713 2.65193L11.0055 0.530387C10.6519 0.220995 10.2099 0 9.72376 0C8.97238 0 8.30939 0.486188 8.0442 1.19337C7.77901 1.01657 7.42541 0.883978 7.07182 0.883978C6.71823 0.883978 6.36464 1.01657 6.09945 1.19337C5.83425 0.486188 5.17127 0 4.41989 0C3.9337 0 3.49171 0.220995 3.13812 0.530387L0.972376 2.65193C0.353591 3.22652 0 4.0221 0 4.90608C0 6.62983 1.37017 8 3.09392 8C4.46409 8 5.61326 7.11602 6.01105 5.83425C6.32044 6.05525 6.67403 6.18785 7.07182 6.18785C7.46961 6.18785 7.8232 6.05525 8.1326 5.83425C8.53039 7.07182 9.67956 8 11.0497 8C12.7735 8 14.1436 6.62983 14.1436 4.90608C14.1436 4.0221 13.7901 3.22652 13.1713 2.65193ZM3.09392 7.11602C1.85635 7.11602 0.883978 6.14365 0.883978 4.90608C0.883978 3.66851 1.85635 2.69613 3.09392 2.69613C4.33149 2.69613 5.30387 3.66851 5.30387 4.90608C5.30387 6.14365 4.33149 7.11602 3.09392 7.11602ZM11.0497 7.11602C9.81215 7.11602 8.83978 6.14365 8.83978 4.90608C8.83978 3.66851 9.81215 2.69613 11.0497 2.69613C12.2873 2.69613 13.2597 3.66851 13.2597 4.90608C13.2597 6.14365 12.2873 7.11602 11.0497 7.11602Z" fill="#6071F8"/>
</svg>
