<svg width="27" height="27" viewBox="0 0 27 27" fill="none" xmlns="http://www.w3.org/2000/svg">
<path fill-rule="evenodd" clip-rule="evenodd" d="M13.5 27C20.9558 27 27 20.9558 27 13.5C27 6.04416 20.9558 0 13.5 0C6.04419 0 0 6.04416 0 13.5C0 20.9558 6.04419 27 13.5 27ZM18.0055 9.53038L20.1713 11.6519C20.79 12.2265 21.1437 13.0221 21.1437 13.9061C21.1437 15.6298 19.7734 17 18.0497 17C16.6796 17 15.5304 16.0718 15.1326 14.8343C14.8232 15.0553 14.4696 15.1879 14.0718 15.1879C13.6741 15.1879 13.3204 15.0553 13.0111 14.8343C12.6133 16.116 11.4641 17 10.0939 17C8.37012 17 7 15.6298 7 13.9061C7 13.0221 7.35364 12.2265 7.97241 11.6519L10.1381 9.53038C10.4917 9.22099 10.9337 9 11.4199 9C12.1713 9 12.8342 9.48619 13.0995 10.1934C13.3646 10.0166 13.7183 9.88397 14.0718 9.88397C14.4254 9.88397 14.7791 10.0166 15.0442 10.1934C15.3094 9.48619 15.9724 9 16.7238 9C17.21 9 17.652 9.22099 18.0055 9.53038ZM7.88403 13.9061C7.88403 15.1436 8.85632 16.116 10.0939 16.116C11.3315 16.116 12.3038 15.1436 12.3038 13.9061C12.3038 12.6685 11.3315 11.6961 10.0939 11.6961C8.85632 11.6961 7.88403 12.6685 7.88403 13.9061ZM15.8397 13.9061C15.8397 15.1436 16.8121 16.116 18.0497 16.116C19.2874 16.116 20.2596 15.1436 20.2596 13.9061C20.2596 12.6685 19.2874 11.6961 18.0497 11.6961C16.8121 11.6961 15.8397 12.6685 15.8397 13.9061Z" fill="white"/>
</svg>
