<svg width="65" height="30" viewBox="0 0 65 30" fill="none" xmlns="http://www.w3.org/2000/svg">
<path d="M6.52364 29.1255C4.47503 28.7393 3.711 28.3279 2.16615 26.8082C1.36854 26.0106 1.28458 25.8931 1.01591 25.3641C0.680071 24.684 0.545736 24.1383 0.545736 23.4331L0.562528 23.2735C0.621299 22.0477 1.18383 21.3005 2.14096 21.2249L2.35926 21.2081C2.49359 21.2081 2.59434 21.2249 2.71189 21.2837C3.02254 21.4432 3.14008 21.6111 3.14008 22.0645V22.2408C3.14008 23.0384 3.49271 23.8025 4.21476 24.5413C5.03756 25.3809 5.83518 25.7671 6.86788 25.8259L7.17852 25.8427C7.39682 25.8427 7.48917 25.8007 7.74105 25.6832C8.28679 25.4481 8.6814 25.1794 8.77375 24.9779C8.8913 24.7428 8.95007 24.5077 8.95007 24.2391C8.95007 23.6178 8.61423 22.8705 7.95095 21.863C7.58153 21.3173 6.75873 20.3433 5.54971 19.0924C4.35749 17.8078 2.8966 16.0278 2.2669 15.1127C0.797614 12.871 0 10.2598 0 7.8418C0 7.07777 0.0755634 6.32214 0.251878 5.61688C0.621299 4.03844 1.54485 2.49359 2.65312 1.57844C3.18206 1.13345 4.28193 0.545736 5.09633 0.293858C5.70084 0.100751 6.48166 0 7.2289 0H7.59832C8.98365 0.100751 10.3522 0.797614 11.2086 1.8555C11.6787 2.44322 11.8551 2.79585 12.0062 3.45913C12.0817 3.82855 12.1237 4.23995 12.1237 4.65135C12.1237 5.80159 11.8131 7.08617 11.2086 8.32037C10.7804 9.17676 10.411 9.72249 9.85683 10.2682C9.31109 10.814 8.85771 11.0658 8.37075 11.0658H8.23641C8.0601 11.0658 8.00133 11.0239 7.88378 10.8895C7.76624 10.7552 7.70747 10.6544 7.70747 10.5369C7.70747 10.3606 7.86699 10.1255 8.23641 9.63853C9.11798 8.48829 9.60495 7.37163 9.75608 6.16262L9.77287 5.69244C9.77287 5.49934 9.75608 5.33981 9.7141 5.07114C9.55457 4.30711 9.31949 3.97967 8.75696 3.68582C8.30358 3.47592 7.8502 3.35837 7.42201 3.35837C7.05259 3.35837 6.68316 3.43394 6.30535 3.59346C4.72691 4.25674 4.08042 5.1551 3.99646 6.86788L3.97967 7.25409C3.97967 8.22802 4.19797 9.00884 4.7437 10.1591C5.24746 11.2338 5.86036 12.0314 7.2205 13.551C9.48741 16.011 10.6964 17.4719 11.5192 18.6642C12.1657 19.6381 12.5351 20.3182 12.829 21.2165C13.0809 22.0393 13.2236 22.7782 13.2236 23.5002C13.2236 23.9872 13.1648 24.4574 13.0473 24.9443C12.829 25.8007 12.7114 26.0778 12.2833 26.7159C11.7207 27.5555 11.0155 28.1012 9.84004 28.5882C8.89969 28.9744 8.04331 29.1759 7.26248 29.1759C7.01061 29.1843 6.75873 29.1675 6.52364 29.1255Z" fill="white"/>
<path d="M20.0243 28.3615C18.5802 28.2271 17.4467 27.5219 16.5484 26.2121C15.8263 25.1626 15.3561 23.3995 15.3561 21.8042C15.3561 21.5692 15.3561 21.3593 15.3729 21.141C15.4485 20.0915 15.5325 19.7976 15.9606 18.6474C16.5819 16.9934 17.3712 15.776 18.4794 14.7265C19.042 14.1975 19.9235 13.593 20.4525 13.3579C21.0402 13.1061 21.6027 12.9717 22.1904 12.9465C23.1476 12.9465 24.0879 13.2572 24.9023 13.8869C25.6076 14.4158 26.0526 15.4317 26.0526 16.3805C26.0526 16.5736 26.0526 16.7667 25.9938 16.9682C25.893 17.4384 25.4313 18.236 25.0199 18.6474C24.5665 19.0924 24.0207 19.3274 23.5926 19.3274C23.2819 19.3274 23.03 19.2099 22.9125 18.958C22.8957 18.8993 22.8957 18.8573 22.8957 18.7817C22.8957 18.6642 22.9125 18.5298 22.9545 18.3367C23.0552 18.0261 23.0888 17.5979 23.0888 17.2033C23.0888 16.8758 23.0468 16.582 22.9713 16.4392C22.8369 16.1622 22.5431 15.9103 22.308 15.8515L22.2492 15.8347C21.8546 15.8347 21.0738 16.3637 20.5112 16.985C19.5121 18.1184 18.9664 19.5961 18.9664 21.0822C18.9664 21.6699 19.0671 22.2492 19.2183 22.8202C19.5121 23.7941 20.0579 24.5329 20.6792 24.7932C20.8135 24.8352 20.973 24.8688 21.1493 24.8688C21.6783 24.8688 22.3835 24.6169 23.1056 24.1635C23.5926 23.8529 23.9032 23.5422 24.281 22.9965C24.7092 22.3752 25.3137 22.0393 25.8427 22.0393C26.296 22.0393 26.6823 22.2744 26.8418 22.7614C26.9006 22.9209 26.9173 23.0552 26.9173 23.2064C26.9173 23.5758 26.783 23.9452 26.5059 24.4909C25.7083 26.0106 24.7092 27.0265 23.2231 27.7905C22.5011 28.1768 21.5439 28.3783 20.6036 28.3783C20.4105 28.3867 20.2174 28.3867 20.0243 28.3615Z" fill="white"/>
<path d="M32.719 27.7234C32.5007 27.6815 32.0725 27.5051 31.745 27.354C31.2749 27.1189 31.0818 26.9846 30.6704 26.5732C30.1414 26.0275 29.9483 25.7168 29.5369 24.7177C29.2011 23.8613 29.0331 22.8034 29.0331 21.6952C29.0331 20.2678 29.3102 18.765 29.8559 17.4972C30.4605 16.0699 31.4176 14.8273 32.4167 14.1808C32.8701 13.8869 33.1556 13.8114 33.6677 13.7946L34.5073 13.6938C34.7004 13.6519 34.9187 13.6519 35.1286 13.6519C35.7919 13.6686 36.5559 13.8701 37.0849 14.1556C37.9832 14.6846 38.5458 15.3478 39.2762 16.7919C39.6708 17.556 39.8975 18.7398 39.8975 19.974C39.8975 20.8724 39.7968 21.3593 39.4274 22.4928C38.7809 24.4406 37.8825 25.7336 36.4552 26.7243C35.7499 27.2113 35.263 27.4632 34.6752 27.6395C34.3226 27.7402 33.8524 27.7738 33.441 27.7738C33.1724 27.7822 32.9121 27.757 32.719 27.7234ZM34.0455 23.9956C34.4989 23.7606 35.3133 22.921 35.666 22.3416C36.0774 21.6616 36.2537 21.2082 36.388 20.4694C36.4636 20.0831 36.5056 19.7305 36.5056 19.3779C36.5056 18.5383 36.2705 17.8582 35.8423 17.43C35.4729 17.0606 35.1202 16.9263 34.4318 16.8843H34.0959C33.844 16.8843 33.7853 16.9011 33.6425 17.0186C33.5418 17.1194 33.3319 17.4048 33.1891 17.6987C32.6602 18.7902 32.3915 19.9656 32.3915 21.2334C32.4083 22.5767 32.6098 23.3576 33.0548 23.8445C33.2479 24.0628 33.3907 24.1552 33.5586 24.1552C33.6929 24.1468 33.8524 24.088 34.0455 23.9956Z" fill="white"/>
<path d="M50.7702 27.7402C50.2245 27.4631 49.9139 26.8251 49.5192 25.2046C49.3849 24.7177 49.2842 24.3063 49.2674 24.2895L48.9903 24.8772C48.327 26.4388 47.1516 27.312 45.8082 27.312H45.5564C44.3222 27.2113 43.407 26.548 42.8193 25.339C42.3155 24.3063 42.0972 23.2904 42.0217 21.4349L42.0049 20.4777C42.0049 18.7818 42.1812 17.0606 42.5086 15.8516C42.8445 14.6258 43.1551 14.08 43.7428 13.7862C43.936 13.7106 44.1123 13.6519 44.3054 13.6519H44.3809C44.9854 13.6686 45.4976 14.1808 45.6907 15.0204C45.7327 15.2135 45.7663 16.4477 45.7663 18.4711C45.7831 21.4013 45.8082 21.6532 45.9258 22.2157C46.0014 22.5431 46.0601 22.837 46.1021 22.8622H46.1189C46.1357 22.8622 46.1777 22.8202 46.2364 22.7614C46.4547 22.4508 47.2523 20.8891 47.8988 19.5626C49.6368 15.9188 49.6956 15.8348 50.3253 15.5409C50.5184 15.4402 50.6611 15.4066 50.8542 15.4066L51.0725 15.4234C51.7526 15.4654 52.2647 15.7928 52.5754 16.4141C52.8105 16.8843 52.886 17.153 52.886 18.8489L52.844 21.989C52.7853 25.0535 52.6509 26.7663 52.4326 27.1777C52.2143 27.6059 51.7862 27.8578 51.3412 27.8578C51.1397 27.8745 50.9466 27.841 50.7702 27.7402Z" fill="white"/>
<path d="M60.1653 28.6385C59.2669 28.4454 58.4861 27.9165 57.8228 27.0349C57.3946 26.4724 57.2351 26.1785 56.9413 25.2801C56.278 23.2735 56.1185 21.8882 56.0849 18.236L56.0681 15.8011C54.5652 15.6416 53.6836 15.2974 53.4318 14.5753C53.3898 14.4578 53.373 14.3402 53.373 14.2227C53.373 13.9708 53.4485 13.6938 53.6081 13.4839C53.9439 13.0137 55.0522 12.5855 55.9337 12.5855C56.0933 12.5855 56.2444 12.5687 56.2864 12.5435C56.3284 12.5183 56.4459 12.0566 56.5215 11.5276C56.8573 9.61333 57.3023 8.34555 57.89 7.68227C58.2258 7.31285 58.5701 7.13654 58.9227 7.13654C59.4852 7.15333 59.9974 7.64029 60.2912 8.53866C60.4675 9.14316 60.5431 9.78965 60.5851 11.3093C60.6271 12.6778 60.6271 12.7114 60.7446 12.7366L61.5254 12.8961C62.3063 13.0305 63.2802 13.5006 63.6328 13.8701C63.8511 14.1052 63.9435 14.357 63.9435 14.5921C63.9435 15.0371 63.5908 15.4485 62.9444 15.6416C62.4574 15.8011 61.9704 15.8767 61.4583 15.8767L60.5011 15.8179C60.4424 16.7163 60.4256 16.3469 60.4256 17.5307C60.4256 18.8405 60.5263 20.8471 60.6019 21.5272C60.8202 23.1812 61.0133 23.962 61.3239 24.5329C61.4583 24.7848 61.5422 24.9023 61.6598 24.9023C61.7185 24.9023 61.7941 24.8436 61.9117 24.7428C62.2475 24.4154 62.4574 24.0627 62.81 23.1644C63.1794 22.224 63.3977 21.9386 63.7084 21.9386C64.1366 21.9386 64.2373 22.0981 64.3549 22.9293C64.3969 23.1644 64.4136 23.433 64.4136 23.7269C64.4136 24.5245 64.2793 25.4648 64.061 26.1449C63.8091 26.867 63.5573 27.312 63.1207 27.7485C62.4574 28.395 61.7353 28.7057 60.8957 28.7057C60.6523 28.7141 60.4172 28.6973 60.1653 28.6385Z" fill="white"/>
</svg>
