<svg width="29" height="35" viewBox="0 0 29 35" fill="none" xmlns="http://www.w3.org/2000/svg">
<g clip-path="url(#clip0)">
<path d="M28.3204 28.3909C28.1794 28.2196 28.0585 28.0181 27.9376 27.8368C27.9073 27.7965 27.8872 27.7562 27.857 27.7159C27.4137 26.9905 27.3633 26.2046 27.5749 25.3886C27.8167 24.4516 28.0786 23.5147 28.2197 22.5576C28.2499 22.3762 28.27 22.1848 28.2801 21.9934C28.3406 21.2478 28.3909 20.4922 28.4312 19.7366C28.4413 19.5452 28.4111 19.3437 28.3909 19.1523C28.3204 18.5377 28.2801 17.9131 28.1592 17.2985C28.0484 16.7544 27.8771 16.2104 27.6958 15.6865C27.2928 14.5078 26.6379 13.4801 25.7916 12.5633C24.8345 11.5357 23.6658 10.8002 22.3662 10.2763C21.5199 9.93378 20.6535 9.60131 19.7467 9.45018C19.0919 9.33936 18.4269 9.23861 17.7519 9.18824C16.9459 9.13786 16.1299 9.14794 15.3339 9.31921C14.6992 9.45018 14.0645 9.57108 13.4499 9.76251C12.3115 10.1151 11.2536 10.6692 10.2663 11.3443C9.52075 11.8581 8.82559 12.4323 8.1808 13.0671C7.50579 13.732 6.89122 14.4372 6.36733 15.2231C5.92404 15.8779 5.54119 16.5731 5.12812 17.2582C5.02738 17.4295 4.96693 17.631 4.73521 17.7317C4.72513 17.6511 4.71506 17.6108 4.70498 17.5604C4.68483 16.8753 4.64453 16.1903 4.65461 15.5152C4.66468 14.5078 4.68483 13.4902 4.72513 12.4827C4.75536 11.7573 4.80573 11.1428 4.88633 10.4274C4.9367 9.95393 5.14827 9.54086 5.56134 9.26884C6.31696 8.77517 7.08264 8.30165 7.83826 7.80799C8.1808 7.58634 8.51327 7.34454 8.81552 7.07252C9.19836 6.72998 9.25881 6.21616 9.00694 5.81317C8.72484 5.3598 8.27147 5.20868 7.75766 5.39002C7.64683 5.43032 7.54609 5.47062 7.43526 5.49077C7.01212 5.60159 6.63935 5.28928 6.6595 4.85606C6.66957 4.54374 6.8207 4.28179 6.96174 4.00977C7.13302 3.6773 7.29421 3.34483 7.44534 3.00229C7.57631 2.70004 7.61661 2.38772 7.54609 2.06533C7.45541 1.63211 7.21362 1.28956 6.87107 1.00747C6.44793 0.644773 5.98449 0.312303 5.44044 0.151105C4.70498 -0.0705412 3.95944 -0.0403167 3.23405 0.211554C2.28702 0.554099 1.54148 1.13844 1.06796 2.0351C0.795943 2.55899 0.564221 3.10303 0.433249 3.68737C0.261976 4.43291 0.221677 5.16838 0.35265 5.91392C0.453398 6.52848 0.544072 7.14305 0.594446 7.75761C0.624671 8.2009 0.604521 8.6442 0.574296 9.08749C0.554147 9.37966 0.483623 9.66176 0.443323 9.94385C0.362725 10.498 0.292201 10.9413 0.221677 11.4853C0.181378 11.8278 0.141078 12.1704 0.110854 12.5129C0.0705543 13.1376 0.0403297 13.7723 0.0201801 14.3969C3.03723e-05 15.1425 -0.0301942 15.8981 3.03723e-05 16.6436C0.0201801 17.3992 0.0806291 18.1649 0.161228 18.9205C0.251901 19.8776 0.35265 20.8348 0.483623 21.7818C0.604521 22.6583 0.745569 23.5247 0.926916 24.3811C1.17879 25.58 1.52133 26.7588 1.94447 27.9174C2.31724 28.9148 2.72024 29.892 3.13331 30.8794C3.43555 31.5947 4.00982 32.0783 4.62438 32.5216C5.19865 32.9346 5.84344 33.2369 6.4983 33.4988C7.41511 33.8716 8.36215 34.1436 9.32933 34.3552C9.43008 34.3753 9.52075 34.3955 9.6215 34.4156C10.8003 34.6675 11.9891 34.8186 13.1981 34.8992C13.8832 34.9496 14.5783 34.9798 15.2634 34.9798C15.8276 34.9798 16.3918 34.9798 16.956 34.9496C17.5706 34.9194 18.1851 34.8791 18.7997 34.7985C19.5855 34.6977 20.3613 34.6171 21.137 34.466C22.1042 34.2847 23.0613 34.053 24.0084 33.7306C25.0763 33.3679 26.1039 32.9246 27.0409 32.2798C27.6655 31.8466 28.1995 31.3428 28.5421 30.6477C28.9249 29.8618 28.8846 29.1062 28.3204 28.3909Z" fill="url(#paint0_linear)"/>
<path d="M16.0492 25.1871C15.0317 25.2979 13.9637 25.2173 12.9361 24.8043C12.0898 24.4617 11.3443 23.9781 10.8708 23.1621C10.3569 22.2654 10.1655 21.3083 10.4476 20.3008C10.6693 19.5049 11.2335 19.0817 12.0092 18.8702C12.6943 18.6888 13.2686 18.8601 13.8126 19.2832C14.2055 19.5855 14.6387 19.8676 15.1626 19.8474C15.5959 19.8273 16.0291 19.7769 16.4623 19.6963C17.0466 19.5956 17.6209 19.4243 18.2254 19.5351C18.7997 19.6359 19.3235 19.8676 19.7064 20.3109C20.2303 20.9254 20.3512 21.6407 20.1497 22.4064C19.9482 23.1621 19.4646 23.7162 18.85 24.1695C17.9634 24.8143 17.2582 25.0662 16.0492 25.1871Z" fill="#F77B2F"/>
<path d="M10.1655 15.5555C10.1252 14.5682 10.4778 13.7824 11.3443 13.2786C12.3215 12.7144 13.3894 13.1779 13.6715 14.276C13.9335 15.2936 13.3391 16.5227 12.3618 16.9358C11.3543 17.369 10.3267 16.7948 10.1756 15.7067C10.1756 15.6462 10.1655 15.6059 10.1655 15.5555Z" fill="#343434"/>
<path d="M21.5904 15.5555C21.6307 16.5328 21.2882 17.3186 20.4318 17.8224C19.4545 18.3966 18.3967 17.9433 18.0944 16.8552C17.8023 15.7973 18.4874 14.4876 19.5251 14.1249C20.4721 13.7924 21.4191 14.3667 21.5703 15.3742C21.5803 15.4346 21.5803 15.4951 21.5904 15.5555Z" fill="#343434"/>
<path d="M16.3616 28.8342C16.3313 28.8141 16.3112 28.7939 16.281 28.7738L27.192 26.7386C27.192 26.7386 27.9476 24.0487 28.2499 22.2956L16.019 27.0006C15.8276 26.8394 15.5858 26.7286 15.3138 26.7084C14.8403 26.658 14.407 26.8595 14.135 27.2021L5.24901 21.9027C5.11804 24.1695 5.30946 25.9125 5.30946 25.9125L13.6917 28.5521C13.2484 28.673 12.8857 29.0156 12.6339 29.3883C12.4727 29.6402 12.3115 29.9223 12.2611 30.2145C12.2309 30.3757 12.2409 30.5469 12.3014 30.6981C12.3618 30.8391 12.4626 30.96 12.5633 31.0809C12.8253 31.3831 13.1074 31.6652 13.3996 31.9272C13.4197 31.9473 13.4499 31.9373 13.4701 31.9272C13.8227 31.635 14.0343 31.2219 14.135 30.7786C14.2559 30.285 14.2156 29.7712 14.1249 29.2674C14.0846 29.0559 14.0343 28.8544 13.9839 28.6428H13.994C14.1955 29.0155 14.5682 29.2876 15.0216 29.3379C15.2735 29.3682 15.5153 29.3178 15.7268 29.217C15.7571 29.348 15.7671 29.4689 15.7671 29.5999C15.7671 29.9122 15.6865 30.2145 15.5455 30.4966C15.4044 30.7786 15.213 31.0406 15.0821 31.3227C15.0216 31.4637 14.9511 31.6149 14.941 31.7761C14.9309 31.9373 15.0115 32.0481 15.1425 32.1287C15.4044 32.2798 15.7369 32.3302 16.0291 32.3C16.3313 32.2697 16.6134 32.1488 16.8451 31.9675C17.0668 31.7861 17.2381 31.5443 17.3388 31.2824C17.4496 30.9902 17.4597 30.6678 17.3993 30.3656C17.2884 29.7309 16.8653 29.217 16.3616 28.8342Z" fill="#D93B0F"/>
<path d="M27.5648 25.3886C27.8066 24.4516 28.0686 23.5147 28.2096 22.5576C25.6204 24.5524 13.8429 33.4787 9.31927 34.3653C9.42002 34.3854 9.5107 34.4056 9.61145 34.4257C10.7902 34.6776 11.979 34.8287 13.188 34.9093C13.8731 34.9597 14.5683 34.9899 15.2534 34.9899C15.8175 34.9899 16.3817 34.9899 16.9459 34.9597C19.5654 33.9421 24.5021 30.295 27.8469 27.7058C27.4036 26.9905 27.3532 26.2047 27.5648 25.3886Z" fill="#7B7E4B"/>
<path d="M26.245 13.0167C26.245 13.0167 25.2073 5.64194 15.1325 6.6595L14.6187 11.8581L26.245 13.0167Z" fill="#460600"/>
<path d="M23.3132 12.7145C23.3132 12.7145 21.4192 8.60392 16.3918 7.0927C16.3918 7.0927 13.2384 5.3699 9.06741 6.36731C9.06741 6.36731 6.61922 6.83075 8.43269 9.02707L10.0447 11.4047L23.3132 12.7145Z" fill="#D93B0F"/>
<path d="M22.4065 30.5469C23.0519 30.5469 23.5752 30.0282 23.5752 29.3883C23.5752 28.7484 23.0519 28.2297 22.4065 28.2297C21.761 28.2297 21.2378 28.7484 21.2378 29.3883C21.2378 30.0282 21.761 30.5469 22.4065 30.5469Z" fill="#FFAC80"/>
<path d="M25.3887 28.3707C26.0341 28.3707 26.5573 27.852 26.5573 27.2121C26.5573 26.5723 26.0341 26.0535 25.3887 26.0535C24.7432 26.0535 24.22 26.5723 24.22 27.2121C24.22 27.852 24.7432 28.3707 25.3887 28.3707Z" fill="#E59D55"/>
<path d="M19.2832 32.5518C19.9287 32.5518 20.4519 32.033 20.4519 31.3932C20.4519 30.7533 19.9287 30.2346 19.2832 30.2346C18.6378 30.2346 18.1146 30.7533 18.1146 31.3932C18.1146 32.033 18.6378 32.5518 19.2832 32.5518Z" fill="#FFE189"/>
</g>
<defs>
<linearGradient id="paint0_linear" x1="-2.8238" y1="4.99757" x2="27.6691" y2="34.7813" gradientUnits="userSpaceOnUse">
<stop stop-color="#FFC520"/>
<stop offset="1" stop-color="#FFAC20"/>
</linearGradient>
<clipPath id="clip0">
<rect width="28.7939" height="35" fill="white"/>
</clipPath>
</defs>
</svg>
